HIERARCHY
ROOT pelvis
{
	OFFSET 0.003123 -0.351407 0.012037
	CHANNELS 6 Xposition Yposition Zposition Zrotation Yrotation Xrotation 
	JOINT left_hip
	{
		OFFSET 0.058189 -0.092763 -0.026001
		CHANNELS 3 Zrotation Yrotation Xrotation
		JOINT left_knee
		{
			OFFSET 0.054695 -0.378753 -0.009396
			CHANNELS 3 Zrotation Yrotation Xrotation
			JOINT left_ankle
			{
				OFFSET -0.043453 -0.403059 -0.031876
				CHANNELS 3 Zrotation Yrotation Xrotation
				JOINT left_foot
				{
					OFFSET 0.047257 -0.057997 0.118216
					CHANNELS 3 Zrotation Yrotation Xrotation
					End Site
					{
						OFFSET 0.000000 0.000000 0.000000
					}
				}
			}
		}
	}
	JOINT right_hip
	{
		OFFSET -0.063267 -0.103908 -0.021250
		CHANNELS 3 Zrotation Yrotation Xrotation
		JOINT right_knee
		{
			OFFSET -0.044210 -0.362380 -0.016824
			CHANNELS 3 Zrotation Yrotation Xrotation
			JOINT right_ankle
			{
				OFFSET 0.015417 -0.410728 -0.020192
				CHANNELS 3 Zrotation Yrotation Xrotation
				JOINT right_foot
				{
					OFFSET -0.038812 -0.058328 0.119049
					CHANNELS 3 Zrotation Yrotation Xrotation
					End Site
					{
						OFFSET 0.000000 0.000000 0.000000
					}
				}
			}
		}
	}
	JOINT spine_1
	{
		OFFSET -0.002763 0.109891 -0.027618
		CHANNELS 3 Zrotation Yrotation Xrotation
		JOINT spine_2
		{
			OFFSET 0.009448 0.131853 -0.005940
			CHANNELS 3 Zrotation Yrotation Xrotation
			JOINT spine_3
			{
				OFFSET -0.011330 0.052235 0.028447
				CHANNELS 3 Zrotation Yrotation Xrotation
				JOINT neck
				{
					OFFSET -0.012164 0.165167 -0.031615
					CHANNELS 3 Zrotation Yrotation Xrotation
					JOINT head
					{
						OFFSET 0.024783 0.160452 0.020737
						CHANNELS 3 Zrotation Yrotation Xrotation
						End Site
						{
							OFFSET 0.000000 0.000000 0.000000
						}
					}
				}
				JOINT left_collar
				{
					OFFSET 0.046364 0.084944 -0.007220
					CHANNELS 3 Zrotation Yrotation Xrotation
					JOINT left_shoulder
					{
						OFFSET 0.119239 0.057728 -0.015461
						CHANNELS 3 Zrotation Yrotation Xrotation
						JOINT left_elbow
						{
							OFFSET 0.254123 -0.072151 -0.042459
							CHANNELS 3 Zrotation Yrotation Xrotation
							JOINT left_wrist
							{
								OFFSET 0.251987 0.023221 -0.002472
								CHANNELS 3 Zrotation Yrotation Xrotation
								JOINT left_index_1
								{
									OFFSET 0.101902 -0.008688 0.019351
									CHANNELS 3 Zrotation Yrotation Xrotation
									JOINT left_index_2
									{
										OFFSET 0.030149 -0.011154 0.001151
										CHANNELS 3 Zrotation Yrotation Xrotation
										JOINT left_index_3
										{
											OFFSET 0.006504 -0.021577 -0.002433
											CHANNELS 3 Zrotation Yrotation Xrotation
											End Site
											{
												OFFSET 0.000000 0.000000 0.000000
											}
										}
									}
								}
								JOINT left_middle_1
								{
									OFFSET 0.109398 -0.006328 -0.003981
									CHANNELS 3 Zrotation Yrotation Xrotation
									JOINT left_middle_2
									{
										OFFSET 0.026472 -0.015218 -0.004641
										CHANNELS 3 Zrotation Yrotation Xrotation
										JOINT left_middle_3
										{
											OFFSET 0.005022 -0.023347 -0.001911
											CHANNELS 3 Zrotation Yrotation Xrotation
											End Site
											{
												OFFSET 0.000000 0.000000 0.000000
											}
										}
									}
								}
								JOINT left_pinky_1
								{
									OFFSET 0.084047 -0.014539 -0.043750
									CHANNELS 3 Zrotation Yrotation Xrotation
									JOINT left_pinky_2
									{
										OFFSET 0.012124 -0.014448 -0.005375
										CHANNELS 3 Zrotation Yrotation Xrotation
										JOINT left_pinky_3
										{
											OFFSET 0.003798 -0.018853 0.000167
											CHANNELS 3 Zrotation Yrotation Xrotation
											End Site
											{
												OFFSET 0.000000 0.000000 0.000000
											}
										}
									}
								}
								JOINT left_ring_1
								{
									OFFSET 0.097444 -0.009268 -0.027345
									CHANNELS 3 Zrotation Yrotation Xrotation
									JOINT left_ring_2
									{
										OFFSET 0.023561 -0.016057 -0.001895
										CHANNELS 3 Zrotation Yrotation Xrotation
										JOINT left_ring_3
										{
											OFFSET 0.004257 -0.023548 0.000814
											CHANNELS 3 Zrotation Yrotation Xrotation
											End Site
											{
												OFFSET 0.000000 0.000000 0.000000
											}
										}
									}
								}
								JOINT left_thumb_1
								{
									OFFSET 0.040636 -0.017977 0.025611
									CHANNELS 3 Zrotation Yrotation Xrotation
									JOINT left_thumb_2
									{
										OFFSET 0.021637 -0.017639 0.011623
										CHANNELS 3 Zrotation Yrotation Xrotation
										JOINT left_thumb_3
										{
											OFFSET 0.024002 -0.008356 0.006548
											CHANNELS 3 Zrotation Yrotation Xrotation
											End Site
											{
												OFFSET 0.000000 0.000000 0.000000
											}
										}
									}
								}
							}
						}
					}
				}
				JOINT right_collar
				{
					OFFSET -0.047695 0.084339 -0.013400
					CHANNELS 3 Zrotation Yrotation Xrotation
					JOINT right_shoulder
					{
						OFFSET -0.102578 0.053524 -0.012669
						CHANNELS 3 Zrotation Yrotation Xrotation
						JOINT right_elbow
						{
							OFFSET -0.271150 -0.036492 -0.026467
							CHANNELS 3 Zrotation Yrotation Xrotation
							JOINT right_wrist
							{
								OFFSET -0.249267 -0.004533 -0.015325
								CHANNELS 3 Zrotation Yrotation Xrotation
								JOINT right_index_1
								{
									OFFSET -0.099881 -0.011783 0.019600
									CHANNELS 3 Zrotation Yrotation Xrotation
									JOINT right_index_2
									{
										OFFSET -0.030148 -0.011154 0.001151
										CHANNELS 3 Zrotation Yrotation Xrotation
										JOINT right_index_3
										{
											OFFSET -0.006505 -0.021577 -0.002432
											CHANNELS 3 Zrotation Yrotation Xrotation
											End Site
											{
												OFFSET 0.000000 0.000000 0.000000
											}
										}
									}
								}
								JOINT right_middle_1
								{
									OFFSET -0.107376 -0.009422 -0.003734
									CHANNELS 3 Zrotation Yrotation Xrotation
									JOINT right_middle_2
									{
										OFFSET -0.026472 -0.015218 -0.004641
										CHANNELS 3 Zrotation Yrotation Xrotation
										JOINT right_middle_3
										{
											OFFSET -0.005022 -0.023347 -0.001911
											CHANNELS 3 Zrotation Yrotation Xrotation
											End Site
											{
												OFFSET 0.000000 0.000000 0.000000
											}
										}
									}
								}
								JOINT right_pinky_1
								{
									OFFSET -0.082027 -0.017634 -0.043503
									CHANNELS 3 Zrotation Yrotation Xrotation
									JOINT right_pinky_2
									{
										OFFSET -0.012123 -0.014448 -0.005374
										CHANNELS 3 Zrotation Yrotation Xrotation
										JOINT right_pinky_3
										{
											OFFSET -0.003798 -0.018852 0.000167
											CHANNELS 3 Zrotation Yrotation Xrotation
											End Site
											{
												OFFSET 0.000000 0.000000 0.000000
											}
										}
									}
								}
								JOINT right_ring_1
								{
									OFFSET -0.095423 -0.012362 -0.027099
									CHANNELS 3 Zrotation Yrotation Xrotation
									JOINT right_ring_2
									{
										OFFSET -0.023561 -0.016057 -0.001895
										CHANNELS 3 Zrotation Yrotation Xrotation
										JOINT right_ring_3
										{
											OFFSET -0.004257 -0.023548 0.000816
											CHANNELS 3 Zrotation Yrotation Xrotation
											End Site
											{
												OFFSET 0.000000 0.000000 0.000000
											}
										}
									}
								}
								JOINT right_thumb_1
								{
									OFFSET -0.038613 -0.021074 0.025861
									CHANNELS 3 Zrotation Yrotation Xrotation
									JOINT right_thumb_2
									{
										OFFSET -0.021636 -0.017639 0.011623
										CHANNELS 3 Zrotation Yrotation Xrotation
										JOINT right_thumb_3
										{
											OFFSET -0.024004 -0.008353 0.006547
											CHANNELS 3 Zrotation Yrotation Xrotation
											End Site
											{
												OFFSET 0.000000 0.000000 0.000000
											}
										}
									}
								}
							}
						}
					}
				}
			}
		}
	}
}
MOTION
Frames: 7
Frame Time: 0.050000
-0.163921 0.905885 4.307373 0.208715 6.238424 -16.891989 3.394970 1.217431 12.246519 -10.271181 -1.844347 46.624658 -0.581092 -2.091440 -1.021254 0.000000 0.000000 0.000000 -3.243971 1.547335 -19.060405 1.494996 0.146672 22.992755 3.092440 -1.629769 13.183182 0.000000 0.000000 0.000000 -1.424524 -2.244612 32.593093 -2.365217 -5.020594 -30.397702 3.074352 -9.724203 30.987828 6.456449 0.124376 -8.142559 0.000000 0.000000 0.000000 -27.723732 -10.291916 7.252663 -30.125360 -25.554524 -7.074700 2.804185 -54.407681 5.248044 -9.768031 -26.519627 -15.996865 -157.124946 37.875087 -51.710432 18.535576 -3.982739 -63.704919 0.000000 0.000000 0.000000 -135.103633 19.475905 -29.344150 37.367315 3.061688 -38.573809 0.000000 0.000000 0.000000 -105.329446 -29.078979 -20.131676 28.735337 -0.237783 2.213244 0.000000 0.000000 0.000000 -125.859831 -22.869355 9.384108 51.237155 5.414069 -9.115401 0.000000 0.000000 0.000000 -33.706364 41.358472 42.023652 109.899221 27.023032 19.744211 0.000000 0.000000 0.000000 18.784879 -6.271749 -7.643462 40.704405 -20.322775 -10.668615 49.143953 45.246271 18.019120 4.582410 3.328458 11.584728 12.890946 -22.309333 6.657622 46.603404 -3.616973 -7.101497 0.000000 0.000000 0.000000 17.628904 11.243974 -8.000142 61.446427 -15.408728 5.136762 0.000000 0.000000 0.000000 11.025002 23.789386 -26.241972 39.882644 6.124626 -12.004675 0.000000 0.000000 0.000000 24.709448 15.160959 -8.589360 61.633820 -5.144028 6.177984 0.000000 0.000000 0.000000 -28.729457 -47.149796 61.538814 -33.609285 45.341365 -40.675615 0.000000 0.000000 0.000000 
-0.178055 0.905966 4.412964 0.792536 -1.093246 -13.459842 6.785742 1.377191 16.244792 -15.974340 2.882758 43.108048 -2.490944 -1.246779 4.488393 0.000000 0.000000 0.000000 1.887283 3.748771 -26.564971 -2.740315 1.426178 19.890702 8.182584 -1.099114 24.010572 0.000000 0.000000 0.000000 -3.022856 -1.404575 27.376586 -1.150301 -5.469131 -28.755170 6.619354 -3.570866 19.216972 3.997993 -2.195539 7.847210 0.000000 0.000000 0.000000 -28.641129 -8.593069 5.322469 -34.274966 -18.428995 -6.508052 -17.594916 -53.647307 15.457227 -35.408424 -34.307750 -7.930658 -179.899325 21.307561 -31.862725 87.310739 21.680608 -53.723105 0.000000 0.000000 0.000000 -166.687539 17.264872 -39.749692 61.558460 11.961901 -51.656048 0.000000 0.000000 0.000000 -114.479449 -16.891422 -20.934385 31.287335 -0.515787 1.011059 0.000000 0.000000 0.000000 -146.597009 -18.213198 7.953869 77.922895 8.297608 -5.488125 0.000000 0.000000 0.000000 -121.130946 13.824885 58.947717 157.136044 26.037956 106.331280 0.000000 0.000000 0.000000 14.623224 -6.395242 -6.704480 41.647897 -28.317099 -12.273849 54.875652 45.805321 20.656533 2.173894 -7.037799 18.239892 21.209995 -10.887297 2.600833 43.140921 -43.474320 34.403982 0.000000 0.000000 0.000000 24.964971 -10.095674 -1.778497 74.653486 -0.209777 -12.900728 0.000000 0.000000 0.000000 -18.393773 32.096489 -35.203703 100.809267 29.158854 -8.299926 0.000000 0.000000 0.000000 27.554223 -8.932618 -1.687959 80.234669 5.021985 -7.199473 0.000000 0.000000 0.000000 -27.908298 -47.246652 62.645564 -12.591047 25.019778 -14.443100 0.000000 0.000000 0.000000 
-0.178055 0.896779 4.518555 0.923453 5.145745 -15.346439 7.343083 0.635092 10.587866 -11.671469 -1.915335 61.629834 -5.559017 -0.024314 12.520576 0.000000 0.000000 0.000000 -2.508950 1.988429 -22.519390 1.303065 0.264593 22.309679 4.240732 -2.282102 17.665735 0.000000 0.000000 0.000000 -0.244735 -1.507804 22.193729 -2.082736 -3.834214 -24.249699 0.857623 -8.938387 33.036645 3.711406 1.896957 -15.715505 0.000000 0.000000 0.000000 -21.919769 -10.714962 7.313319 -34.345363 -26.061117 -6.798937 -15.300184 -58.199905 16.213572 -41.566215 -36.322293 -1.147555 125.458249 6.230055 155.789250 -32.942408 19.216675 14.763476 0.000000 0.000000 0.000000 -158.337376 27.303718 -45.265568 46.342172 4.216640 -51.933566 0.000000 0.000000 0.000000 -116.042113 -19.664546 -22.774337 49.371553 -1.086324 3.554635 0.000000 0.000000 0.000000 -157.361733 -3.395654 -6.141477 91.165582 23.832519 -27.317086 0.000000 0.000000 0.000000 -91.462434 13.312419 45.061400 151.289813 20.695129 122.287674 0.000000 0.000000 0.000000 23.102770 -12.882045 -14.417590 40.239967 -15.739081 -9.333799 48.390878 49.231998 19.728634 10.299930 3.459842 17.300275 9.935234 -31.671650 11.307967 41.541857 -41.086557 34.015881 0.000000 0.000000 0.000000 13.689854 -39.306628 11.803873 81.459962 -1.959439 -9.838734 0.000000 0.000000 0.000000 -11.452228 24.462265 -18.212889 96.152700 33.505704 -18.161442 0.000000 0.000000 0.000000 23.718254 -41.215740 5.589890 88.637518 -2.791495 0.003314 0.000000 0.000000 0.000000 -8.974680 -42.601297 47.572201 -32.508208 24.702710 -27.489397 0.000000 0.000000 0.000000 
-0.181824 0.879695 4.603027 1.597450 4.255272 -20.302348 7.269051 0.605463 8.656290 -11.937257 -2.302815 74.323447 -3.043486 3.020979 11.365115 0.000000 0.000000 0.000000 -3.097504 1.695396 -19.809492 3.099092 -0.254012 34.356511 2.817613 -0.146395 8.978377 0.000000 0.000000 0.000000 0.564341 -2.336418 31.027937 -4.752617 -4.029041 -28.271832 -1.995504 -18.078056 27.025150 1.272084 0.025705 -3.295584 0.000000 0.000000 0.000000 -23.984148 4.814881 -2.195993 -35.214954 -12.303535 -7.001667 -47.904417 -60.660223 39.853429 -16.004846 -12.922464 -4.300676 -129.625036 56.991559 -43.327971 -14.614930 -17.778798 -45.467645 0.000000 0.000000 0.000000 -114.352022 11.293952 -19.442697 31.951868 -0.715131 -30.868390 0.000000 0.000000 0.000000 -105.894378 -24.411590 -24.350770 34.734011 -0.732201 8.939271 0.000000 0.000000 0.000000 -123.103199 -30.154671 6.243733 58.928896 3.082912 7.678450 0.000000 0.000000 0.000000 -64.864664 35.384972 38.482214 114.880111 34.082584 37.578826 0.000000 0.000000 0.000000 22.639045 2.838074 -4.452202 38.153401 -20.794677 -10.015183 60.106465 55.688627 27.891662 -1.961543 -12.581812 23.017135 13.105787 9.073682 -3.968204 70.988163 -31.828768 6.673642 0.000000 0.000000 0.000000 16.174728 12.022262 -8.658100 61.206097 15.503054 -31.387400 0.000000 0.000000 0.000000 -17.444585 30.356679 -24.365073 43.426668 26.950130 -48.238427 0.000000 0.000000 0.000000 12.539606 20.318670 -10.678597 55.320161 20.346940 -35.206851 0.000000 0.000000 0.000000 -19.200106 -24.272323 27.837265 7.757903 -10.446547 3.842131 0.000000 0.000000 0.000000 
-0.179939 0.859871 4.687500 0.830125 -2.594509 -21.809449 9.078296 0.409260 4.603509 -15.417802 4.840415 80.942147 2.703863 9.724714 7.091492 0.000000 0.000000 0.000000 2.587862 2.599181 -17.618669 0.226052 1.983126 40.527143 -0.321985 -0.302063 -0.483854 0.000000 0.000000 0.000000 0.737531 -2.449105 34.020523 -3.884804 -5.028973 -29.429831 0.276572 -12.042161 26.525876 4.098508 0.830464 -10.558301 0.000000 0.000000 0.000000 -26.106240 6.061916 -3.746269 -35.213203 -7.124475 -7.275487 -56.432124 -57.795706 43.354519 -22.352610 -16.229300 5.957260 -172.597990 63.834652 -80.308135 -69.638529 -33.113754 -33.523953 0.000000 0.000000 0.000000 -163.418426 39.411383 -56.844027 2.087815 -20.826544 -75.461927 0.000000 0.000000 0.000000 -112.808260 -18.022699 -27.866237 40.584478 -1.114574 7.859517 0.000000 0.000000 0.000000 -134.658303 -24.160060 3.635306 70.774138 9.579600 -12.320510 0.000000 0.000000 0.000000 17.062683 35.811405 66.968776 84.933898 18.672094 -5.494745 0.000000 0.000000 0.000000 22.814736 4.858105 -2.405190 38.255248 -13.670765 -8.544701 48.592062 55.934313 21.961581 6.265103 -1.623352 19.910269 12.969265 -6.770556 2.150476 59.617950 -28.673725 8.383405 0.000000 0.000000 0.000000 24.470489 -6.458114 -3.112592 53.339260 14.990955 -32.500324 0.000000 0.000000 0.000000 -6.927352 41.093785 -22.986665 36.779259 16.255084 -50.382707 0.000000 0.000000 0.000000 26.177461 7.696225 -5.967662 48.190456 16.069215 -35.210199 0.000000 0.000000 0.000000 -14.360042 -18.767076 19.501231 -1.454354 12.701069 -3.983174 0.000000 0.000000 0.000000 
-0.182766 0.848911 4.750854 0.166621 -4.083707 -23.009339 9.680758 -0.123812 -4.941251 -15.415653 6.305971 86.286848 6.805905 12.989009 -0.419100 0.000000 0.000000 0.000000 5.208417 3.223236 -18.788334 -0.238504 3.258160 50.413314 -1.890701 0.569393 -6.299417 0.000000 0.000000 0.000000 -0.555467 -2.167883 36.157901 -5.693785 -1.149459 -15.258561 5.167873 -3.497775 8.900517 5.809260 -1.192220 1.090231 0.000000 0.000000 0.000000 -21.151869 -2.048266 0.217162 -43.723328 -1.520846 -7.471855 -55.852731 -57.955317 41.251764 -15.199846 -11.974536 -4.075708 -123.825242 43.274146 -30.249706 13.900482 -12.249946 -49.539753 0.000000 0.000000 0.000000 -117.127692 22.955810 -26.035192 21.102689 -4.049640 -38.087566 0.000000 0.000000 0.000000 -118.952074 -5.728156 -25.861427 41.212957 -1.140810 6.317792 0.000000 0.000000 0.000000 -129.102395 -10.439796 -2.142735 60.008621 9.335294 -15.651308 0.000000 0.000000 0.000000 -32.527534 58.736390 58.077198 103.395885 28.657689 9.627010 0.000000 0.000000 0.000000 19.377619 0.484293 -3.481789 43.596574 -13.497656 -8.813773 42.742232 58.637203 20.860469 14.710650 -7.010510 30.245465 -1.652689 -12.872342 7.741011 76.009584 -42.133275 3.828490 0.000000 0.000000 0.000000 -4.998781 20.783610 -18.074567 92.409896 -3.341576 -15.395732 0.000000 0.000000 0.000000 -43.438036 37.972637 -46.394633 14.520563 4.807354 -51.478680 0.000000 0.000000 0.000000 -6.049754 30.178817 -22.202142 80.066479 11.418573 -15.802911 0.000000 0.000000 0.000000 -29.197435 -22.150005 32.966444 -7.543484 30.303145 -10.652074 0.000000 0.000000 0.000000 
-0.185593 0.846333 4.835327 -0.368698 -5.186941 -22.070773 9.375901 -0.534338 -12.616259 -14.128087 5.430746 83.850223 11.330016 16.791740 -11.491019 0.000000 0.000000 0.000000 4.458349 3.006564 -18.027822 3.620677 1.626396 53.000944 -5.075325 -1.821082 -13.143887 0.000000 0.000000 0.000000 1.095948 -2.498151 35.370995 -3.266864 -5.684890 -31.068237 1.218455 0.694599 32.673296 5.454639 0.540211 -9.472344 0.000000 0.000000 0.000000 -24.637296 -2.141282 0.131439 -40.313245 -4.079856 -8.299517 -50.477366 -60.679341 40.466607 -30.204528 -5.770095 8.893821 109.886822 0.390711 149.846944 -59.616404 24.657232 12.582108 0.000000 0.000000 0.000000 -169.213336 30.500025 -55.017378 38.884987 -2.433965 -68.536331 0.000000 0.000000 0.000000 -114.313694 0.383300 -31.552085 17.788262 0.038063 -4.922534 0.000000 0.000000 0.000000 -142.251240 -13.097984 -4.585550 74.846471 8.349716 -10.977299 0.000000 0.000000 0.000000 79.441201 -0.387121 122.010084 111.335848 -8.527778 -87.276548 0.000000 0.000000 0.000000 24.107454 3.221721 -0.780749 38.913312 2.089459 -5.463733 29.939347 56.157381 14.129022 11.582777 7.515617 7.278764 97.330303 -57.640137 -28.115248 99.832642 10.054004 -11.628915 0.000000 0.000000 0.000000 82.309097 -31.159761 -17.964403 74.963848 23.518934 -25.562029 0.000000 0.000000 0.000000 114.455298 -2.734016 -35.209580 -6.673689 11.708618 -43.974694 0.000000 0.000000 0.000000 90.325474 -2.302818 -10.040457 51.918296 31.854743 -37.343335 0.000000 0.000000 0.000000 -10.655617 -52.538890 65.848308 -69.646010 10.274081 -42.227293 0.000000 0.000000 0.000000 
